<svg width="23" height="23" viewBox="0 0 23 23" fill="none" xmlns="http://www.w3.org/2000/svg">
<path d="M17.0712 22.6126C16.2157 22.6063 15.364 22.4989 14.5337 22.2927C11.6664 21.6009 8.71382 19.846 6.22117 17.3512C3.72851 14.8563 1.9714 11.9032 1.2796 9.03866C0.551167 6.02538 1.0707 3.44741 2.74086 1.77725L3.21773 1.30038C3.6504 0.868578 4.2367 0.626068 4.84796 0.626068C5.45923 0.626068 6.04553 0.868578 6.4782 1.30038L9.21859 4.04022C9.65066 4.47274 9.89335 5.0591 9.89335 5.67045C9.89335 6.28181 9.65066 6.86817 9.21859 7.30069L7.59984 8.91889C8.37585 10.2806 9.43132 11.6434 10.6787 12.8908C11.9262 14.1383 13.2901 15.1943 14.6512 15.9703L16.2694 14.3515C16.4835 14.1374 16.7377 13.9675 17.0174 13.8517C17.2971 13.7358 17.5969 13.6761 17.8997 13.6761C18.2025 13.6761 18.5023 13.7358 18.782 13.8517C19.0617 13.9675 19.3159 14.1374 19.5299 14.3515L22.2698 17.0914C22.7019 17.5238 22.9447 18.11 22.9447 18.7214C22.9447 19.3327 22.7019 19.919 22.2698 20.3513L21.7923 20.8282C20.6149 22.0078 18.9852 22.6126 17.0712 22.6126ZM4.84796 2.26561C4.76065 2.26518 4.67412 2.28217 4.59346 2.3156C4.51279 2.34904 4.43961 2.39823 4.3782 2.4603L3.90078 2.93717C2.65007 4.18788 2.28476 6.21842 2.8721 8.65147C3.4939 11.2289 5.0946 13.9069 7.3789 16.1907C9.6632 18.4744 12.3407 20.0735 14.9187 20.6975C17.3523 21.2848 19.3817 20.9195 20.6324 19.6688L21.1093 19.1919C21.2339 19.0672 21.3039 18.8982 21.3039 18.7219C21.3039 18.5456 21.2339 18.3766 21.1093 18.2519L18.37 15.512C18.2453 15.3874 18.0762 15.3174 17.9 15.3174C17.7237 15.3174 17.5546 15.3874 17.4299 15.512L15.3786 17.5633C15.2555 17.6865 15.0964 17.7673 14.9244 17.794C14.7523 17.8208 14.5762 17.7921 14.4216 17.7121C12.7399 16.8426 11.0446 15.5765 9.51882 14.0508C7.99304 12.525 6.72976 10.8308 5.85804 9.14913C5.77799 8.99452 5.7492 8.81846 5.77585 8.64641C5.80249 8.47436 5.88318 8.31525 6.00625 8.1921L8.05812 6.14077C8.18272 6.01607 8.25271 5.84701 8.25271 5.67073C8.25271 5.49445 8.18272 5.32539 8.05812 5.20069L5.31828 2.4603C5.25667 2.39833 5.18338 2.34922 5.10264 2.3158C5.02191 2.28238 4.93534 2.26532 4.84796 2.26561Z" fill="white"/>
<path d="M17.9473 12.7509C17.7297 12.7509 17.5211 12.6644 17.3672 12.5106C17.2134 12.3568 17.127 12.1481 17.127 11.9305C17.1254 10.4915 16.553 9.11176 15.5355 8.09412C14.5179 7.07648 13.1383 6.504 11.6992 6.50226C11.4817 6.50226 11.273 6.41583 11.1192 6.26199C10.9653 6.10816 10.8789 5.89951 10.8789 5.68195C10.8789 5.46439 10.9653 5.25574 11.1192 5.1019C11.273 4.94806 11.4817 4.86163 11.6992 4.86163C15.5968 4.86163 18.7676 8.03351 18.7676 11.9305C18.7676 12.1481 18.6812 12.3568 18.5273 12.5106C18.3735 12.6644 18.1648 12.7509 17.9473 12.7509Z" fill="white"/>
<path d="M21.4145 12.7508C21.1969 12.7508 20.9882 12.6644 20.8344 12.5106C20.6806 12.3567 20.5941 12.1481 20.5941 11.9305C20.5941 7.02561 16.602 3.03506 11.6992 3.03506C11.4817 3.03506 11.273 2.94864 11.1192 2.7948C10.9653 2.64096 10.8789 2.43231 10.8789 2.21475C10.8789 1.99719 10.9653 1.78854 11.1192 1.6347C11.273 1.48087 11.4817 1.39444 11.6992 1.39444C17.5087 1.39444 22.2348 6.12108 22.2348 11.9305C22.2348 12.1481 22.1483 12.3567 21.9945 12.5106C21.8407 12.6644 21.632 12.7508 21.4145 12.7508Z" fill="white"/>
</svg>
