<svg width="31" height="35" viewBox="0 0 31 35" fill="none" xmlns="http://www.w3.org/2000/svg">
<path d="M16.9952 32.1772C17.0369 32.5751 17.0618 33.0914 17.1515 33.5955C17.2601 34.2054 17.5996 34.2594 17.9944 33.8508C18.3677 33.4645 18.7156 33.0479 19.0462 32.621C22.3524 28.3472 24.5637 23.4269 26.6246 18.4455C27.7682 15.6814 28.2027 16.1065 25.1632 14.8056C20.7092 12.8995 16.0411 12.7053 11.3196 13.3736C8.80744 13.7289 6.40424 14.4547 4.1824 15.771C3.63973 16.0923 3.42238 16.4032 3.68462 17.0749C4.5243 19.2258 5.23196 21.4354 6.13857 23.5542C6.9178 25.3754 7.88426 27.112 8.80866 28.8631C8.95464 29.1403 9.31473 29.2952 9.57576 29.5069C9.76602 29.235 10.0135 28.9889 10.1368 28.6878C10.8791 26.8779 11.5568 25.0388 12.3346 23.2457C12.6211 22.5858 13.037 21.9341 13.5392 21.4369C15.0538 19.938 16.6527 20.3986 17.1244 22.5245C17.3925 23.7322 17.4465 25.0193 17.4121 26.2648C17.359 28.1982 17.1483 30.1267 16.9952 32.1772ZM0.422119 17.309C1.00745 16.4643 1.539 15.5707 2.19813 14.7936C2.60352 14.316 2.68258 13.8975 2.5459 13.3201C1.91062 10.6349 1.71754 7.90408 1.87221 5.14851C2.05296 1.92892 4.23659 0.364692 7.21663 1.32654C8.01527 1.58416 8.80643 1.89743 9.55615 2.2804C11.2153 3.12824 12.9489 3.49169 14.7916 3.3888C15.0749 3.37285 15.3688 3.5679 15.6578 3.66512C15.4637 3.92568 15.3179 4.3307 15.0668 4.42141C13.96 4.8216 12.8283 5.15292 11.6941 5.46262C11.2478 5.58461 10.7606 5.54304 10.3115 5.65768C10.0325 5.72885 9.78967 5.95352 9.53067 6.10931C9.78017 6.24264 10.0347 6.49942 10.279 6.48913C11.5762 6.43391 12.8783 6.37092 14.165 6.19959C16.2083 5.92727 17.914 4.91167 19.392 3.44276C20.1103 2.72889 20.8516 2.0379 21.61 1.37042C23.5742 -0.358004 26.3529 -0.0806413 28.0041 1.96273C29.5576 3.88516 29.706 6.13891 29.3974 8.46426C29.1987 9.96215 28.8738 11.4468 28.5234 12.9161C28.3663 13.5742 28.4114 14.0002 28.8956 14.5308C29.6659 15.3744 30.2794 16.3717 30.9597 17.3042C23.9523 8.78509 6.9544 9.13405 0.422119 17.309Z" fill="#46B1DE"/>
</svg>
