<svg width="26" height="25" viewBox="0 0 26 25" fill="none" xmlns="http://www.w3.org/2000/svg">
<path d="M13.1875 1.00001C5.82276 0.892229 -0.0853844 7.486 1.15625 15.0313C1.99816 20.1517 6.20505 24.1814 11.3438 24.875C14.8086 25.3429 18.0478 24.3431 20.5 22.375L19.25 20.8125C17.2042 22.4544 14.5129 23.3004 11.5938 22.9063C7.33846 22.3319 3.85234 18.9523 3.15625 14.7188C2.10789 8.34801 6.991 2.90978 13.1563 3.00001C18.411 3.07707 22.8405 7.43503 23 12.6875C23.0035 12.8001 23 12.9095 23 13.0313C22.992 15.2342 21.2081 17.0008 19 17C17.883 16.9993 17 16.1157 17 15V14.5V11.5V7.00001H15V7.78126C14.2815 7.29459 13.4275 7.00001 12.5 7.00001C10.0266 7.00001 8 9.02657 8 11.5V14.5C8 16.9734 10.0266 19 12.5 19C13.8479 19 15.0482 18.3855 15.875 17.4375C16.6095 18.3716 17.7288 18.9992 19 19C22.284 19.0012 24.988 16.3203 25 13.0313C25 12.899 25.0045 12.7684 25 12.625C24.8076 6.28949 19.5247 1.09294 13.1875 1.00001ZM12.5 9.00001C13.8926 9.00001 15 10.1074 15 11.5V14.5C15 15.8926 13.8926 17 12.5 17C11.1074 17 10 15.8926 10 14.5V11.5C10 10.1074 11.1074 9.00001 12.5 9.00001Z" fill="white"/>
</svg>
